<?xml version="1.0" encoding="utf-8"?>
<!-- Generator: Adobe Illustrator 16.0.4, SVG Export Plug-In . SVG Version: 6.00 Build 0)  -->
<!DOCTYPE svg PUBLIC "-//W3C//DTD SVG 1.1//EN" "http://www.w3.org/Graphics/SVG/1.1/DTD/svg11.dtd">
<svg version="1.1" id="Layer_1" xmlns="http://www.w3.org/2000/svg" xmlns:xlink="http://www.w3.org/1999/xlink" x="0px" y="0px"
	 width="2551.18px" height="510.24px" viewBox="0 0 2551.18 510.24" enable-background="new 0 0 2551.18 510.24"
	 xml:space="preserve">
<g>
	<g>
		<path d="M711.935,223.926v5.16h-21.967V333.32h-5.16V229.086H662.84v-5.16H711.935z"/>
		<path d="M690.967,334.32h-7.16V230.086H661.84v-7.16h51.095v7.16h-21.967V334.32z M685.807,332.32h3.16V228.086h21.967v-3.16
			H663.84v3.16h21.967V332.32z"/>
	</g>
	<g>
		<path d="M793.464,223.926h5.16L758.818,333.32h-5.308l10.173-27.717l-32.435-81.677h5.75l29.192,74.453L793.464,223.926z"/>
		<path d="M759.518,334.32h-7.44l10.535-28.703l-32.838-82.691h7.905l28.478,72.632l26.608-72.632h7.287L759.518,334.32z
			 M754.942,332.32h3.175l39.079-107.394h-3.033l-27.942,76.273l-29.906-76.273h-3.594l32.032,80.664L754.942,332.32z"/>
	</g>
	<g>
		<path d="M823.539,299.117c-2.262,0.295-4.474,0.441-6.634,0.441v-5.16c2.456,0,4.667-0.195,6.634-0.59v-69.882h17.987
			c8.256,0,14.669,2.336,19.24,7.003c4.57,4.669,6.855,11.083,6.855,19.24c0,5.407-1.057,10.688-3.169,15.848
			c-2.115,5.16-4.964,9.879-8.551,14.154c-3.589,4.275-7.74,7.986-12.458,11.131c-4.718,3.146-9.634,5.357-14.743,6.635v35.383
			h-5.16V299.117z M841.378,286.438c4.128-2.85,7.74-6.166,10.836-9.951c3.096-3.783,5.577-7.936,7.445-12.459
			c1.866-4.52,2.801-9.14,2.801-13.858c0-2.85-0.419-5.651-1.253-8.404c-0.836-2.75-2.237-5.16-4.202-7.224
			c-2.064-2.064-4.448-3.488-7.15-4.275c-2.705-0.786-5.48-1.18-8.33-1.18h-12.827v63.542
			C833.122,291.354,837.347,289.289,841.378,286.438z"/>
		<path d="M829.699,334.32h-7.16v-34.076c-1.913,0.209-3.803,0.314-5.634,0.314h-1v-7.16h1c2.053,0,3.944-0.143,5.634-0.422v-70.05
			h18.987c8.495,0,15.208,2.458,19.954,7.304c4.739,4.841,7.141,11.55,7.141,19.939c0,5.51-1.091,10.969-3.244,16.227
			c-2.146,5.236-5.076,10.086-8.71,14.418c-3.636,4.332-7.899,8.141-12.669,11.32c-4.556,3.039-9.362,5.25-14.298,6.576V334.32z
			 M824.539,332.32h3.16v-35.164l0.757-0.188c4.978-1.246,9.833-3.432,14.431-6.498c4.612-3.074,8.733-6.756,12.247-10.941
			c3.501-4.174,6.325-8.848,8.392-13.891c2.053-5.016,3.095-10.221,3.095-15.469c0-7.848-2.21-14.086-6.57-18.54
			c-4.355-4.448-10.588-6.703-18.525-6.703h-16.987v69.703l-0.803,0.16c-1.746,0.352-3.704,0.551-5.831,0.6v3.16
			c1.794-0.039,3.642-0.182,5.505-0.422l1.129-0.148V332.32z M827.699,293.959v-65.873h13.827c2.927,0,5.824,0.41,8.609,1.219
			c2.857,0.833,5.406,2.356,7.579,4.529c2.081,2.185,3.572,4.75,4.451,7.64c0.861,2.84,1.297,5.766,1.297,8.695
			c0,4.824-0.968,9.616-2.877,14.241c-1.898,4.594-4.454,8.871-7.596,12.709c-3.142,3.84-6.856,7.252-11.042,10.143
			c-4.097,2.896-8.464,5.029-12.97,6.328L827.699,293.959z M829.699,230.086v61.189c3.84-1.256,7.569-3.154,11.102-5.654
			c4.041-2.789,7.617-6.072,10.64-9.768c3.017-3.688,5.472-7.795,7.295-12.207c1.809-4.381,2.726-8.916,2.726-13.477
			c0-2.732-0.407-5.462-1.21-8.114c-0.787-2.589-2.123-4.885-3.969-6.825c-1.915-1.914-4.177-3.268-6.706-4.005
			c-2.603-0.756-5.312-1.14-8.05-1.14H829.699z"/>
	</g>
	<g>
		<path d="M894.601,333.32h-5.16V223.926h5.16v39.955h5.897l37.006-39.955h6.929l-37.153,40.101
			c4.718,0.199,8.795,1.156,12.237,2.875c3.439,1.721,6.362,3.98,8.772,6.783c2.407,2.801,4.423,6.043,6.045,9.73
			c1.622,3.686,2.972,7.592,4.054,11.721l9.583,38.184h-5.308l-9.288-36.857c-0.983-3.734-2.163-7.273-3.538-10.615
			c-1.378-3.34-3.17-6.24-5.381-8.699c-2.211-2.455-4.865-4.396-7.961-5.822c-3.096-1.424-6.807-2.139-11.131-2.139h-10.762V333.32z
			"/>
		<path d="M949.253,334.32h-7.369l-9.479-37.613c-0.965-3.662-2.141-7.191-3.493-10.479c-1.33-3.223-3.079-6.053-5.2-8.41
			c-2.11-2.344-4.679-4.223-7.636-5.584c-2.953-1.357-6.558-2.047-10.713-2.047h-9.762v64.133h-7.16V222.926h7.16v39.955h4.46
			l37.006-39.955h9.656l-37.286,40.246c3.969,0.375,7.502,1.326,10.527,2.836c3.543,1.773,6.599,4.137,9.083,7.025
			c2.463,2.867,4.55,6.225,6.202,9.98c1.631,3.707,3.013,7.701,4.106,11.869L949.253,334.32z M943.443,332.32h3.247l-9.271-36.941
			c-1.064-4.055-2.41-7.947-4-11.561c-1.573-3.574-3.554-6.766-5.888-9.482c-2.311-2.686-5.157-4.885-8.461-6.539
			c-3.298-1.646-7.279-2.578-11.832-2.77l-2.163-0.092l37.068-40.009h-4.203l-37.006,39.955h-7.334v-39.955h-3.16V332.32h3.16
			v-64.133h11.762c4.445,0,8.331,0.75,11.549,2.23c3.205,1.477,5.993,3.516,8.287,6.062c2.274,2.527,4.146,5.551,5.562,8.986
			c1.386,3.369,2.591,6.982,3.581,10.742L943.443,332.32z"/>
	</g>
	<g>
		<path d="M971.854,333.32h-5.455l38.038-113.227l38.038,113.227h-5.455l-32.583-98.336L971.854,333.32z"/>
		<path d="M1043.865,334.32h-7.568l-31.86-96.157l-31.86,96.157h-7.568l39.428-117.367L1043.865,334.32z M1037.742,332.32h3.342
			l-36.647-109.087L967.79,332.32h3.342l33.305-100.516L1037.742,332.32z"/>
	</g>
	<g>
		<path d="M1121.497,223.926h5.16L1086.85,333.32h-5.308l10.173-27.717l-32.435-81.677h5.75l29.192,74.453L1121.497,223.926z"/>
		<path d="M1087.55,334.32h-7.44l10.535-28.703l-32.838-82.691h7.905l28.478,72.632l26.608-72.632h7.287L1087.55,334.32z
			 M1082.975,332.32h3.175l39.079-107.394h-3.033l-27.942,76.273l-29.906-76.273h-3.594l32.032,80.664L1082.975,332.32z"/>
	</g>
	<g>
		<path d="M1144.937,223.926h46.294v5.16h-41.134v34.646l20.345,0.148c5.014-0.098,9.312,0.541,12.9,1.916
			c3.588,1.377,6.562,3.27,8.92,5.676c2.359,2.41,4.078,5.211,5.16,8.404c1.08,3.195,1.622,6.463,1.622,9.805
			c0,5.896-1.204,11.156-3.612,15.775c-2.409,4.621-5.823,8.797-10.246,12.531c-5.603,4.816-11.919,8.381-18.945,10.688
			c-7.028,2.311-14.131,4.055-21.304,5.234V223.926z M1193,289.682c0-3.834-0.641-7.078-1.918-9.73
			c-1.277-2.654-3.021-4.793-5.233-6.414s-4.817-2.801-7.813-3.539c-3-0.736-6.266-1.105-9.805-1.105h-18.134v58.826
			c4.913-0.982,9.901-2.408,14.964-4.275c5.062-1.867,9.657-4.324,13.785-7.371c4.129-3.047,7.52-6.732,10.173-11.059
			C1191.672,300.689,1193,295.578,1193,289.682z"/>
		<path d="M1143.937,335.088V222.926h48.294v7.16h-41.134v32.654l19.353,0.141c0.312-0.006,0.648-0.01,0.98-0.01
			c4.692,0,8.82,0.67,12.271,1.992c3.708,1.424,6.828,3.412,9.276,5.91c2.451,2.504,4.266,5.459,5.393,8.783
			c1.111,3.287,1.675,6.693,1.675,10.125c0,6.031-1.253,11.494-3.726,16.236c-2.459,4.717-5.988,9.035-10.488,12.834
			c-5.672,4.877-12.16,8.537-19.277,10.875c-7.039,2.314-14.258,4.088-21.454,5.27L1143.937,335.088z M1145.937,224.926v107.802
			c6.709-1.164,13.429-2.846,19.991-5.002c6.867-2.254,13.127-5.785,18.605-10.496c4.308-3.637,7.674-7.752,10.012-12.236
			c2.322-4.453,3.499-9.605,3.499-15.312c0-3.213-0.528-6.404-1.569-9.484c-1.029-3.035-2.688-5.736-4.928-8.025
			c-2.244-2.291-5.126-4.121-8.562-5.441c-3.451-1.322-7.666-1.955-12.523-1.85l-21.364-0.154v-36.64h41.134v-3.16H1145.937z
			 M1149.097,328.939v-61.047h19.134c3.598,0,6.977,0.383,10.043,1.135c3.114,0.768,5.861,2.014,8.166,3.703
			c2.334,1.711,4.199,3.994,5.544,6.787c1.338,2.779,2.017,6.199,2.017,10.164c0,6.057-1.39,11.391-4.129,15.855
			c-2.709,4.416-6.219,8.23-10.432,11.34c-4.183,3.088-8.904,5.613-14.032,7.506c-5.093,1.877-10.179,3.33-15.114,4.316
			L1149.097,328.939z M1151.097,269.893v56.598c4.458-0.955,9.034-2.293,13.618-3.984c4.951-1.826,9.506-4.262,13.537-7.238
			c4.005-2.955,7.34-6.58,9.914-10.775c2.544-4.146,3.834-9.129,3.834-14.811c0-3.662-0.612-6.789-1.818-9.297
			c-1.201-2.494-2.858-4.525-4.924-6.041c-2.094-1.535-4.604-2.67-7.463-3.375c-2.908-0.713-6.127-1.076-9.564-1.076H1151.097z"/>
	</g>
	<g>
		<path d="M1286.617,333.32h-5.16V223.926h5.16v39.955h5.896l37.006-39.955h6.93l-37.153,40.101
			c4.718,0.199,8.795,1.156,12.237,2.875c3.438,1.721,6.361,3.98,8.771,6.783c2.407,2.801,4.423,6.043,6.045,9.73
			c1.621,3.686,2.972,7.592,4.055,11.721l9.582,38.184h-5.307l-9.289-36.857c-0.982-3.734-2.162-7.273-3.537-10.615
			c-1.379-3.34-3.17-6.24-5.382-8.699c-2.212-2.455-4.865-4.396-7.962-5.822c-3.096-1.424-6.807-2.139-11.131-2.139h-10.762V333.32z
			"/>
		<path d="M1341.269,334.32h-7.368l-9.479-37.613c-0.965-3.662-2.142-7.191-3.494-10.479c-1.329-3.223-3.078-6.053-5.199-8.41
			c-2.11-2.344-4.68-4.223-7.637-5.584c-2.953-1.357-6.559-2.047-10.713-2.047h-9.762v64.133h-7.16V222.926h7.16v39.955h4.459
			l37.006-39.955h9.656l-37.286,40.246c3.97,0.375,7.503,1.326,10.527,2.836c3.543,1.773,6.599,4.137,9.083,7.025
			c2.463,2.867,4.551,6.225,6.203,9.98c1.631,3.707,3.013,7.701,4.105,11.869L1341.269,334.32z M1335.459,332.32h3.246
			l-9.271-36.941c-1.063-4.055-2.41-7.947-4-11.561c-1.572-3.574-3.553-6.766-5.887-9.482c-2.311-2.686-5.158-4.885-8.461-6.539
			c-3.299-1.646-7.279-2.578-11.832-2.77l-2.162-0.092l37.067-40.009h-4.202l-37.006,39.955h-7.334v-39.955h-3.16V332.32h3.16
			v-64.133h11.762c4.445,0,8.331,0.75,11.549,2.23c3.205,1.477,5.994,3.516,8.287,6.062c2.273,2.527,4.146,5.551,5.562,8.986
			c1.387,3.369,2.591,6.982,3.58,10.742L1335.459,332.32z"/>
	</g>
	<g>
		<path d="M1417.24,333.32h-5.16l-0.146-104.381l-44.673,0.147V333.32h-5.16V223.926h55.14V333.32z"/>
		<path d="M1418.24,334.32h-7.158l-0.147-104.378l-42.674,0.141V334.32h-7.16V222.926h57.14V334.32z M1413.079,332.32h3.161V224.926
			h-53.14V332.32h3.16V228.09l46.671-0.154L1413.079,332.32z"/>
	</g>
	<g>
		<path d="M1444.81,333.32h-5.16V223.926h5.16V333.32z"/>
		<path d="M1445.81,334.32h-7.16V222.926h7.16V334.32z M1440.649,332.32h3.16V224.926h-3.16V332.32z"/>
	</g>
	<g>
		<path d="M1533.561,216.997h5.16l-6.191,29.192h-5.308L1533.561,216.997z M1546.388,216.997h5.16l-6.192,29.192h-5.307
			L1546.388,216.997z"/>
		<path d="M1546.166,247.189h-7.357l6.773-31.192h7.2L1546.166,247.189z M1541.289,245.189h3.256l5.769-27.192h-3.12
			L1541.289,245.189z M1533.339,247.189h-7.357l6.773-31.192h7.2L1533.339,247.189z M1528.462,245.189h3.257l5.768-27.192h-3.119
			L1528.462,245.189z"/>
	</g>
	<g>
		<path d="M1573.367,223.926h41.871v5.16h-36.711V333.32h-5.16V223.926z"/>
		<path d="M1579.527,334.32h-7.16V222.926h43.871v7.16h-36.711V334.32z M1574.367,332.32h3.16V228.086h36.711v-3.16h-39.871V332.32z
			"/>
	</g>
	<g>
		<path d="M1702.663,223.926V333.32h-5.16V229.086h-12.237c-4.521,0-8.354,0.862-11.499,2.58c-3.147,1.721-5.801,3.981-7.962,6.782
			c-2.162,2.801-3.883,5.996-5.16,9.583c-1.277,3.589-2.311,7.298-3.096,11.13l-14.596,74.158h-5.16l14.743-75.189
			c0.885-4.52,2.112-8.846,3.687-12.974c1.57-4.128,3.66-7.763,6.266-10.91c2.603-3.145,5.75-5.651,9.436-7.519
			c3.686-1.866,8.131-2.801,13.342-2.801H1702.663z"/>
		<path d="M1703.663,334.32h-7.16V230.086h-11.237c-4.328,0-8.035,0.827-11.02,2.458c-3.012,1.647-5.585,3.839-7.648,6.516
			c-2.09,2.706-3.775,5.837-5.01,9.308c-1.259,3.531-2.287,7.231-3.06,10.996l-14.753,74.957h-7.197l14.977-76.381
			c0.894-4.564,2.149-8.984,3.732-13.139c1.602-4.206,3.765-7.972,6.43-11.191c2.678-3.235,5.961-5.85,9.755-7.773
			c3.813-1.931,8.454-2.909,13.794-2.909h18.397V334.32z M1698.503,332.32h3.16V224.926h-16.397c-5.022,0-9.359,0.906-12.891,2.693
			c-3.547,1.798-6.615,4.243-9.117,7.265c-2.525,3.051-4.578,6.626-6.102,10.628c-1.543,4.049-2.768,8.359-3.639,12.812
			l-14.51,73.996h3.123l14.438-73.352c0.791-3.864,1.846-7.654,3.135-11.272c1.305-3.669,3.092-6.986,5.311-9.859
			c2.234-2.896,5.018-5.268,8.273-7.048c3.281-1.793,7.312-2.703,11.979-2.703h13.237V332.32z"/>
	</g>
	<g>
		<path d="M1783.16,221.715c7.763,0,15.111,1.5,22.041,4.497c6.93,2.999,12.974,7.077,18.134,12.237s9.237,11.205,12.237,18.133
			c2.996,6.93,4.496,14.279,4.496,22.041c0,7.865-1.5,15.236-4.496,22.115c-3,6.881-7.077,12.9-12.237,18.061
			s-11.204,9.24-18.134,12.236c-6.93,2.998-14.278,4.498-22.041,4.498c-7.865,0-15.236-1.5-22.115-4.498
			c-6.881-2.996-12.9-7.076-18.061-12.236s-9.24-11.18-12.236-18.061c-3-6.879-4.497-14.25-4.497-22.115
			c0-7.762,1.497-15.111,4.497-22.041c2.996-6.929,7.076-12.973,12.236-18.133s11.18-9.238,18.061-12.237
			C1767.924,223.215,1775.295,221.715,1783.16,221.715z M1783.16,226.875c-7.077,0-13.762,1.353-20.051,4.055
			c-6.291,2.704-11.795,6.413-16.513,11.131s-8.429,10.224-11.132,16.512c-2.704,6.291-4.054,12.975-4.054,20.051
			c0,7.078,1.35,13.762,4.054,20.051c2.703,6.291,6.414,11.795,11.132,16.514c4.718,4.717,10.222,8.428,16.513,11.131
			c6.289,2.703,12.974,4.055,20.051,4.055c7.076,0,13.76-1.352,20.051-4.055c6.289-2.703,11.794-6.414,16.512-11.131
			c4.719-4.719,8.427-10.223,11.131-16.514c2.703-6.289,4.055-12.973,4.055-20.051c0-7.076-1.352-13.76-4.055-20.051
			c-2.704-6.288-6.412-11.794-11.131-16.512c-4.718-4.718-10.223-8.427-16.512-11.131
			C1796.92,228.228,1790.236,226.875,1783.16,226.875z"/>
		<path d="M1783.16,336.533c-7.965,0-15.54-1.541-22.515-4.58c-6.96-3.031-13.141-7.219-18.368-12.447
			c-5.227-5.227-9.414-11.406-12.447-18.367c-3.038-6.971-4.579-14.545-4.579-22.516c0-7.869,1.54-15.418,4.579-22.438
			c3.032-7.012,7.221-13.217,12.447-18.444c5.223-5.223,11.402-9.411,18.368-12.446c6.976-3.04,14.55-4.581,22.515-4.581
			c7.863,0,15.412,1.541,22.438,4.579c7.016,3.036,13.221,7.224,18.444,12.448c5.224,5.223,9.411,11.429,12.448,18.444
			c3.037,7.025,4.578,14.574,4.578,22.438c0,7.965-1.541,15.541-4.58,22.516c-3.035,6.965-7.223,13.145-12.446,18.367
			c-5.228,5.229-11.434,9.416-18.444,12.447C1798.573,334.992,1791.023,336.533,1783.16,336.533z M1783.16,222.715
			c-7.688,0-14.994,1.485-21.716,4.414c-6.734,2.936-12.708,6.982-17.753,12.027c-5.048,5.048-9.094,11.044-12.025,17.825
			c-2.93,6.766-4.415,14.049-4.415,21.643c0,7.693,1.485,15,4.413,21.717c2.932,6.73,6.979,12.703,12.027,17.752
			c5.05,5.051,11.023,9.096,17.753,12.027c6.722,2.93,14.027,4.414,21.716,4.414c7.59,0,14.871-1.484,21.644-4.416
			c6.778-2.93,12.775-6.977,17.824-12.025c5.046-5.045,9.092-11.018,12.027-17.752c2.929-6.723,4.413-14.027,4.413-21.717
			c0-7.588-1.485-14.871-4.414-21.645c-2.936-6.781-6.982-12.778-12.026-17.823s-11.042-9.091-17.824-12.026
			C1798.031,224.2,1790.748,222.715,1783.16,222.715z M1783.16,331.373c-7.182,0-14.061-1.391-20.446-4.135
			c-6.377-2.74-12.037-6.557-16.824-11.344c-4.788-4.787-8.604-10.447-11.343-16.826c-2.744-6.381-4.136-13.26-4.136-20.445
			c0-7.184,1.392-14.062,4.136-20.445c2.74-6.378,6.557-12.039,11.343-16.824c4.784-4.784,10.444-8.6,16.824-11.343
			c6.388-2.744,13.267-4.136,20.446-4.136c7.177,0,14.056,1.392,20.445,4.136c6.381,2.744,12.041,6.56,16.824,11.343
			c4.781,4.781,8.598,10.442,11.343,16.824c2.745,6.389,4.136,13.268,4.136,20.445c0,7.18-1.391,14.059-4.135,20.445
			c-2.744,6.383-6.561,12.043-11.344,16.826c-4.785,4.785-10.446,8.602-16.824,11.344
			C1797.219,329.982,1790.34,331.373,1783.16,331.373z M1783.16,227.875c-6.907,0-13.52,1.337-19.657,3.974
			c-6.146,2.642-11.595,6.315-16.199,10.919c-4.605,4.605-8.279,10.056-10.919,16.199c-2.637,6.133-3.974,12.746-3.974,19.656
			c0,6.912,1.337,13.525,3.973,19.656c2.64,6.143,6.313,11.594,10.92,16.201c4.606,4.605,10.058,8.279,16.2,10.92
			c6.135,2.637,12.747,3.973,19.656,3.973c6.906,0,13.52-1.336,19.655-3.973c6.144-2.641,11.595-6.314,16.2-10.92
			c4.604-4.604,8.277-10.055,10.92-16.201c2.636-6.135,3.973-12.748,3.973-19.656c0-6.904-1.337-13.518-3.973-19.656
			c-2.645-6.147-6.318-11.598-10.92-16.199c-4.603-4.603-10.053-8.276-16.2-10.919
			C1796.678,229.212,1790.064,227.875,1783.16,227.875z"/>
	</g>
	<g>
		<path d="M1861.888,223.926h46.294v5.16h-41.134v34.646l20.345,0.148c5.014-0.098,9.312,0.541,12.9,1.916
			c3.588,1.377,6.562,3.27,8.92,5.676c2.359,2.41,4.078,5.211,5.16,8.404c1.08,3.195,1.622,6.463,1.622,9.805
			c0,5.896-1.204,11.156-3.612,15.775c-2.409,4.621-5.823,8.797-10.246,12.531c-5.603,4.816-11.919,8.381-18.945,10.688
			c-7.028,2.311-14.131,4.055-21.304,5.234V223.926z M1909.951,289.682c0-3.834-0.641-7.078-1.918-9.73
			c-1.277-2.654-3.021-4.793-5.233-6.414s-4.817-2.801-7.813-3.539c-3-0.736-6.267-1.105-9.805-1.105h-18.134v58.826
			c4.913-0.982,9.901-2.408,14.964-4.275c5.062-1.867,9.657-4.324,13.785-7.371c4.129-3.047,7.52-6.732,10.173-11.059
			C1908.623,300.689,1909.951,295.578,1909.951,289.682z"/>
		<path d="M1860.888,335.088V222.926h48.294v7.16h-41.134v32.654l19.353,0.141c0.312-0.006,0.648-0.01,0.98-0.01
			c4.692,0,8.82,0.67,12.271,1.992c3.708,1.424,6.828,3.412,9.276,5.91c2.451,2.504,4.266,5.459,5.393,8.783
			c1.111,3.287,1.675,6.693,1.675,10.125c0,6.031-1.253,11.494-3.726,16.236c-2.459,4.717-5.988,9.035-10.488,12.834
			c-5.672,4.877-12.16,8.537-19.278,10.875c-7.038,2.314-14.257,4.088-21.453,5.27L1860.888,335.088z M1862.888,224.926v107.802
			c6.709-1.164,13.429-2.846,19.991-5.002c6.867-2.254,13.127-5.785,18.605-10.496c4.308-3.637,7.674-7.752,10.012-12.236
			c2.322-4.453,3.499-9.605,3.499-15.312c0-3.213-0.528-6.404-1.569-9.484c-1.029-3.035-2.688-5.736-4.928-8.025
			c-2.245-2.291-5.126-4.121-8.562-5.441c-3.451-1.322-7.669-1.955-12.523-1.85l-21.364-0.154v-36.64h41.134v-3.16H1862.888z
			 M1866.048,328.939v-61.047h19.134c3.598,0,6.977,0.383,10.043,1.135c3.114,0.768,5.861,2.014,8.166,3.703
			c2.334,1.711,4.199,3.994,5.544,6.787c1.338,2.779,2.017,6.199,2.017,10.164c0,6.057-1.39,11.391-4.129,15.855
			c-2.709,4.416-6.219,8.23-10.432,11.34c-4.183,3.088-8.904,5.613-14.032,7.506c-5.093,1.877-10.179,3.33-15.114,4.316
			L1866.048,328.939z M1868.048,269.893v56.598c4.458-0.955,9.034-2.293,13.618-3.984c4.951-1.826,9.506-4.262,13.537-7.238
			c4.005-2.955,7.34-6.58,9.914-10.775c2.544-4.146,3.834-9.129,3.834-14.811c0-3.662-0.612-6.789-1.818-9.297
			c-1.201-2.494-2.858-4.525-4.924-6.041c-2.094-1.535-4.604-2.67-7.463-3.375c-2.908-0.713-6.127-1.076-9.564-1.076H1868.048z"/>
	</g>
	<g>
		<path d="M2009.023,223.926h5.75L1969.07,333.32h-5.309l11.205-27.127l-39.512-82.267h5.75l36.416,75.632L2009.023,223.926z"/>
		<path d="M1969.736,334.32h-7.469l11.605-28.096l-40.008-83.298h7.969l35.72,74.187l30.803-74.187h7.919L1969.736,334.32z
			 M1965.258,332.32h3.146l44.869-107.394h-3.581l-32.003,77.078l-37.112-77.078h-3.531l39.018,81.238L1965.258,332.32z"/>
	</g>
	<g>
		<path d="M2095.271,334.059c-7.961-1.867-15.679-4.914-23.146-9.141c-7.472-4.225-14.08-9.363-19.83-15.408
			c-5.75-6.043-10.371-12.875-13.858-20.492c-3.49-7.615-5.233-15.75-5.233-24.4c0-6.092,0.884-11.646,2.653-16.659
			c1.769-5.013,4.349-9.288,7.739-12.827c3.392-3.539,7.543-6.289,12.459-8.256c4.914-1.965,10.467-2.949,16.66-2.949h23.441v5.16
			h-23.441c-5.506,0-10.395,0.836-14.67,2.506c-4.275,1.673-7.865,4.055-10.763,7.151c-2.9,3.096-5.112,6.833-6.634,11.205
			c-1.525,4.375-2.285,9.265-2.285,14.669c0,8.16,1.67,15.826,5.012,23c3.34,7.176,7.789,13.564,13.343,19.166
			c5.552,5.602,11.868,10.346,18.945,14.227c7.076,3.885,14.397,6.611,21.968,8.184L2095.271,334.059z"/>
		<path d="M2095.822,335.215l-0.779-0.182c-8.02-1.881-15.896-4.992-23.411-9.244c-7.517-4.252-14.266-9.496-20.062-15.59
			c-5.803-6.1-10.527-13.086-14.043-20.766c-3.533-7.709-5.324-16.059-5.324-24.816c0-6.18,0.912-11.896,2.711-16.992
			c1.808-5.124,4.486-9.56,7.96-13.186c3.474-3.624,7.782-6.481,12.81-8.493c5.012-2.004,10.742-3.021,17.031-3.021h24.441v7.16
			h-24.441c-5.352,0-10.164,0.82-14.307,2.438c-4.119,1.612-7.617,3.934-10.396,6.903c-2.789,2.978-4.949,6.628-6.42,10.85
			c-1.479,4.243-2.229,9.067-2.229,14.34c0,7.977,1.654,15.572,4.918,22.578c3.274,7.033,7.697,13.387,13.146,18.885
			c5.46,5.508,11.758,10.236,18.717,14.053c6.953,3.818,14.251,6.537,21.689,8.082l1.256,0.262L2095.822,335.215z M2072.715,224.926
			c-6.034,0-11.515,0.968-16.289,2.877c-4.76,1.905-8.834,4.603-12.107,8.02c-3.276,3.419-5.807,7.614-7.52,12.468
			c-1.723,4.881-2.596,10.375-2.596,16.326c0,8.469,1.73,16.537,5.143,23.984c3.424,7.479,8.023,14.281,13.674,20.219
			c5.66,5.951,12.253,11.074,19.598,15.229c7.105,4.021,14.539,6.996,22.105,8.85l1.453-2.996
			c-7.199-1.623-14.256-4.316-20.994-8.016c-7.127-3.908-13.578-8.754-19.174-14.398c-5.613-5.662-10.168-12.205-13.539-19.449
			c-3.389-7.271-5.105-15.15-5.105-23.422c0-5.498,0.787-10.543,2.34-14.998c1.562-4.487,3.867-8.376,6.85-11.559
			c2.982-3.188,6.727-5.677,11.128-7.398c4.375-1.709,9.433-2.575,15.034-2.575h22.441v-3.16H2072.715z"/>
	</g>
	<g>
		<path d="M2125.787,216.997h5.16l-6.192,29.192h-5.307L2125.787,216.997z M2138.614,216.997h5.16l-6.192,29.192h-5.307
			L2138.614,216.997z"/>
		<path d="M2138.393,247.189h-7.357l6.773-31.192h7.2L2138.393,247.189z M2133.516,245.189h3.256l5.769-27.192h-3.12
			L2133.516,245.189z M2125.565,247.189h-7.357l6.773-31.192h7.2L2125.565,247.189z M2120.688,245.189h3.257l5.768-27.192h-3.119
			L2120.688,245.189z"/>
	</g>
</g>
<g>
	<path fill="#010101" d="M157.469,339.193l75.955-58.662L157.469,339.193z"/>
	
		<rect x="192.94" y="261.873" transform="matrix(-0.6113 -0.7914 0.7914 -0.6113 69.6961 653.9487)" fill="#010101" width="5" height="95.971"/>
</g>
<g>
	<polyline fill="#16666C" points="250.538,339.193 234.971,281.738 158.609,339.193 250.538,339.193 	"/>
	<path fill="#16666C" d="M253.806,341.693H151.128l85.29-64.173L253.806,341.693z M166.09,336.693h81.181l-13.747-50.737
		L166.09,336.693z"/>
</g>
<g>
	<polygon fill="#40C3DA" points="150.013,341.044 210.413,191.165 234.705,278.545 	"/>
	<path fill="#40C3DA" d="M147.766,343.945l62.821-155.887l25.267,90.882L147.766,343.945z M210.239,194.273l-57.979,143.87
		l81.297-59.993L210.239,194.273z"/>
</g>
<g>
	<polygon fill="#A8AAAD" points="233.783,278.288 337.682,202.314 249.487,339.089 	"/>
	<path fill="#A8AAAD" d="M249.09,341.55l-16.445-63.669l108.799-79.557L249.09,341.55z M234.921,278.695l14.964,57.933
		l84.035-130.323L234.921,278.695z"/>
</g>
<g>
	<polygon fill="#40C3DA" points="512.006,76.57 449.28,65.528 552.288,151.217 	"/>
	<path fill="#40C3DA" d="M555.624,155.292L445.75,63.891l66.906,11.778L555.624,155.292z M452.813,67.165l96.14,79.976
		l-37.597-69.67L452.813,67.165z"/>
</g>
<g>
	<polygon fill="#595A5C" points="395.303,56.902 406.276,33.934 473.886,68.634 	"/>
	<path fill="#595A5C" d="M479.752,70.522l-85.935-12.831l12-25.116L479.752,70.522z M396.788,56.113l71.23,10.635l-61.283-31.454
		L396.788,56.113z"/>
</g>
<path fill="#2BACE2" d="M250.538,339.193"/>
<path fill="#010101" d="M561.104,160.863l-121.071-98.88l73.291,12.22L561.104,160.863z M457.762,70.008l86.48,70.628
	l-34.129-61.899L457.762,70.008z"/>
<path fill="#010101" d="M500.83,77.048l-111.088-18.54l13.599-28.779L500.83,77.048z M397.088,54.665l70.375,11.745l-61.761-29.977
	L397.088,54.665z"/>
<g>
	<polygon fill="#010101" points="556.008,187.801 510.794,119.512 561.036,160.785 	"/>
	<path fill="#010101" d="M533.335,144.5l22.245,18.274l-2.228,11.961L533.335,144.5 M510.794,119.512l45.214,68.289l5.028-27.015
		L510.794,119.512L510.794,119.512z"/>
</g>
<path fill="none" stroke="#010101" stroke-width="5" stroke-miterlimit="10" d="M176.304,409.142"/>
<path fill="none" stroke="#010101" stroke-width="5" stroke-miterlimit="10" d="M457.677,95.476"/>
<path fill="#010101" d="M318.339,451.805c-40.15,0-78.943-12.621-112.186-36.5c-32.269-23.18-57.084-56.072-69.875-92.62
	c-7.149-20.432-10.775-41.867-10.775-63.715c0-106.331,86.505-192.835,192.835-192.835c106.329,0,192.835,86.505,192.835,192.835
	c0,51.399-21.163,100.106-59.59,137.147C414.87,431.508,366.304,451.805,318.339,451.805z M318.339,71.134
	c-103.573,0-187.835,84.262-187.835,187.835c0,21.282,3.531,42.165,10.495,62.062c12.454,35.589,36.629,67.626,68.072,90.212
	c32.387,23.264,70.171,35.562,109.269,35.562c46.683,0,93.983-19.787,129.774-54.287c37.44-36.09,58.061-83.519,58.061-133.548
	C506.174,155.397,421.911,71.134,318.339,71.134z"/>
<path fill="none" stroke="#010101" stroke-width="5" stroke-miterlimit="10" d="M199.974,182.097"/>
<polygon fill="#010101" points="480.764,342.491 318.024,113.251 242.388,205.598 238.52,202.43 318.308,105.013 484.84,339.597 "/>
<path fill="#010101" d="M146.421,343.548l192.037-146.026l104.293,40.584l46.814,105.276L146.421,343.548z M339.255,203.196
	L161.267,338.54l320.605-0.152l-42.854-96.37L339.255,203.196z"/>
<polygon fill="#010101" points="249.601,343.351 207.339,192.193 212.154,190.846 251.476,331.487 339.467,198.976 343.633,201.741 
	"/>
<polygon fill="#010101" points="151.794,343.338 147.144,341.5 208.082,187.417 302.278,227.796 300.309,232.391 210.839,194.039 
	"/>
<path fill="#FCEE23" d="M301.294,230.093"/>
<path fill="none" stroke="#010101" stroke-width="5" stroke-miterlimit="10" d="M301.294,230.093"/>
<path fill="none" stroke="#010101" stroke-width="5" stroke-miterlimit="10" d="M174.973,379.856"/>
<path fill="none" stroke="#010101" stroke-width="5" stroke-miterlimit="10" d="M419.278,97.87"/>
<path fill="none" stroke="#010101" stroke-width="5" stroke-miterlimit="10" d="M442.994,115.657"/>
<path fill="none" stroke="#010101" stroke-width="5" stroke-miterlimit="10" d="M193.544,400.362"/>
<path fill="none" stroke="#010101" stroke-width="5" stroke-miterlimit="10" d="M172.597,382.597"/>
<g>
	<polygon fill="#010101" points="155.08,476.012 195.844,426.561 159.406,433.213 	"/>
	<path fill="#010101" d="M183.285,433.937l-21.571,26.167l2.29-22.647L183.285,433.937 M195.844,426.561l-36.438,6.651l-4.326,42.8
		L195.844,426.561L195.844,426.561z"/>
</g>
<polygon fill="#010101" points="153.229,480.511 157.139,431.754 188.813,395.479 192.579,398.768 161.99,433.799 159.423,465.813 
	207.566,410.676 211.333,413.966 "/>
<polygon fill="#010101" points="459.217,130.069 455.451,126.78 481.713,96.703 466.767,84.748 440.852,114.427 437.086,111.138 
	466.149,77.852 488.912,96.06 "/>
<g>
	<line fill="none" x1="159.406" y1="433.213" x2="199.025" y2="424.758"/>
	
		<rect x="176.706" y="408.754" transform="matrix(-0.2088 -0.9779 0.9779 -0.2088 -202.9161 693.8622)" fill="#010101" width="5.001" height="40.512"/>
</g>
</svg>
